<svg xmlns="http://www.w3.org/2000/svg" width="234" height="57" fill="none"><path fill="#192A68" d="M75.444 47.255 69.9 37.463h-2.376v9.792h-5.04V22.127h9.432q2.916 0 4.968 1.044 2.052 1.008 3.06 2.772 1.044 1.728 1.044 3.888 0 2.484-1.44 4.5-1.44 1.98-4.284 2.736l6.012 10.188zm-7.92-13.572h4.212q2.052 0 3.06-.972 1.008-1.008 1.008-2.772 0-1.728-1.008-2.664-1.008-.972-3.06-.972h-4.212zm36.563 3.168q0 1.08-.144 1.944h-14.58q.18 2.16 1.511 3.384 1.333 1.224 3.276 1.224 2.808 0 3.996-2.412h5.437q-.864 2.88-3.312 4.752-2.448 1.836-6.013 1.836-2.88 0-5.183-1.26-2.269-1.296-3.565-3.636-1.26-2.34-1.26-5.4 0-3.096 1.26-5.436t3.528-3.6 5.22-1.26q2.845 0 5.077 1.224a8.44 8.44 0 0 1 3.492 3.492q1.26 2.232 1.26 5.148m-5.22-1.44q-.038-1.944-1.404-3.096-1.368-1.188-3.348-1.188-1.872 0-3.168 1.152-1.26 1.116-1.549 3.132zm7.602 1.8q0-3.024 1.188-5.364 1.224-2.34 3.276-3.6 2.088-1.26 4.644-1.26 2.232 0 3.888.9 1.692.9 2.7 2.268V27.31h5.076v19.944h-5.076v-2.916q-.972 1.404-2.7 2.34-1.692.9-3.924.9-2.52 0-4.608-1.296-2.052-1.296-3.276-3.636-1.188-2.376-1.188-5.436m15.696.072q0-1.836-.72-3.132-.72-1.332-1.944-2.016a5.1 5.1 0 0 0-2.628-.72q-1.404 0-2.592.684t-1.944 2.016q-.72 1.296-.72 3.096t.72 3.168q.756 1.332 1.944 2.052 1.224.72 2.592.72 1.404 0 2.628-.684a5.24 5.24 0 0 0 1.944-2.016q.72-1.332.72-3.168m15.039-16.668v26.64h-5.04v-26.64zm28.677 1.476v2.088h-6.984v23.076h-2.52V24.179h-7.02V22.09zm6.5 9q.828-1.836 2.52-2.844 1.728-1.008 4.212-1.008v2.628h-.684q-2.736 0-4.392 1.476t-1.656 4.932v10.98h-2.52V27.599h2.52zm27.55-3.492v19.656h-2.52v-3.456a6.04 6.04 0 0 1-2.664 2.808q-1.8.972-4.032.972-3.528 0-5.76-2.16-2.232-2.196-2.232-6.336V27.599h2.484v11.196q0 3.204 1.584 4.896 1.62 1.692 4.392 1.692 2.844 0 4.536-1.8t1.692-5.292V27.599zm12.522 19.944q-3.384 0-5.544-1.548-2.124-1.584-2.376-4.284h2.592q.18 1.656 1.548 2.7 1.404 1.008 3.744 1.008 2.052 0 3.204-.972 1.188-.972 1.188-2.412 0-1.008-.648-1.656t-1.656-1.008q-.972-.396-2.664-.828-2.196-.576-3.564-1.152a6.3 6.3 0 0 1-2.34-1.692q-.936-1.152-.936-3.06 0-1.44.864-2.664t2.448-1.944 3.6-.72q3.168 0 5.112 1.62 1.944 1.584 2.088 4.392h-2.52q-.108-1.728-1.368-2.772-1.224-1.08-3.384-1.08-1.908 0-3.096.9t-1.188 2.232q0 1.152.684 1.908.72.72 1.764 1.152 1.044.396 2.808.9 2.124.576 3.384 1.116t2.16 1.584.936 2.772q0 1.584-.864 2.844-.864 1.224-2.412 1.944t-3.564.72m14.859-17.82v12.204q0 1.8.684 2.484t2.412.684h2.304v2.16h-2.7q-2.664 0-3.96-1.224-1.296-1.26-1.296-4.104V29.723h-2.736v-2.124h2.736v-4.932h2.556v4.932h5.4v2.124zM42.075 21.24H49.5L24.75 0 0 21.24h7.425L24.75 6.348zm-29.7-16.968V0H4.95v10.62z"/><path fill="#217BF4" d="M24.75 21.24c-7.837 0-14.25 6.053-14.25 13.452 0 7.398 6.413 13.452 14.25 13.452S39 42.09 39 34.692c0-7.399-6.413-13.452-14.25-13.452m0 24.213c-6.284 0-11.4-4.829-11.4-10.761s5.116-10.762 11.4-10.762 11.4 4.83 11.4 10.762-5.116 10.761-11.4 10.761m6.54-16.707-9.39 8.865-3.69-3.47-2.01 1.896 5.7 5.38 11.4-10.76z"/></svg>